<svg xmlns="http://www.w3.org/2000/svg" viewBox="0 0 500 500"><g id="freepik--Floor--inject-11"><ellipse id="freepik--floor--inject-11" cx="250" cy="351.51" rx="227.89" ry="131.57" style="fill:#fafafa"></ellipse></g><g id="freepik--Shadows--inject-11"><ellipse id="freepik--Shadow--inject-11" cx="405.49" cy="411.82" rx="68.5" ry="39.55" style="fill:#ebebeb"></ellipse><path id="freepik--shadow--inject-11" d="M128.19,475.22l-74.43-43c-2.21-1.27-2.21-3.34,0-4.61L240.58,319.77a8.85,8.85,0,0,1,8,0l74.43,43c2.21,1.28,2.21,3.34,0,4.61L136.18,475.22A8.85,8.85,0,0,1,128.19,475.22Z" style="fill:#ebebeb"></path><path id="freepik--shadow--inject-11" d="M225.68,319.77,27.78,425.55c-2.26,1.31-2.26,3.43,0,4.73L42.9,439a9,9,0,0,0,8.19,0L249,333.23c2.26-1.31,2.26-3.42,0-4.73l-15.12-8.73A9,9,0,0,0,225.68,319.77Z" style="fill:#ebebeb"></path></g><g id="freepik--Pictures--inject-11"><g id="freepik--Picture--inject-11"><g id="freepik--Frame--inject-11"><polygon points="290.85 91.03 292.55 92.05 327.51 71.86 325.8 70.85 290.85 91.03" style="fill:#fafafa"></polygon><polygon points="325.8 70.85 292.55 90.04 292.55 55.22 325.81 36.04 325.8 70.85" style="fill:#fff"></polygon><path d="M330.72,29.47,289.34,53.36V97.61l41.38-23.89Zm-3.21,42.39-35,20.19V55.22l35-20.18Z" style="fill:#f0f0f0"></path><polygon points="327.51 71.86 325.8 70.85 325.81 36.04 327.51 35.04 327.51 71.86" style="fill:#e0e0e0"></polygon><polygon points="330.72 29.47 328.99 28.48 287.61 52.38 289.34 53.37 330.72 29.47" style="fill:#fafafa"></polygon><polygon points="287.61 52.38 289.34 53.37 289.34 97.61 287.61 96.62 287.61 52.38" style="fill:#e0e0e0"></polygon></g><g id="freepik--Land--inject-11"><polygon points="324.51 69.81 293.85 87.51 293.85 78.66 301.51 60.96 306.29 65.38 304.57 72.8 315.16 50.16 324.51 60.96 324.51 69.81" style="fill:#f0f0f0"></polygon><path d="M306,52.41a5,5,0,0,0-2.27,3.93c0,1.44,1,2,2.27,1.31a5,5,0,0,0,2.27-3.93C308.27,52.27,307.25,51.69,306,52.41Z" style="fill:#f0f0f0"></path></g></g><g id="freepik--picture--inject-11"><g id="freepik--frame--inject-11"><polygon points="290.85 145.42 292.55 146.44 327.51 126.25 325.8 125.24 290.85 145.42" style="fill:#fafafa"></polygon><polygon points="325.8 125.24 292.55 144.43 292.55 109.61 325.81 90.43 325.8 125.24" style="fill:#fff"></polygon><path d="M330.72,83.86l-41.38,23.89V152l41.38-23.89Zm-3.21,42.39-35,20.18V109.61l35-20.18Z" style="fill:#f0f0f0"></path><polygon points="327.51 126.25 325.8 125.24 325.81 90.43 327.51 89.43 327.51 126.25" style="fill:#e0e0e0"></polygon><polygon points="330.72 83.86 328.99 82.87 287.61 106.76 289.34 107.75 330.72 83.86" style="fill:#fafafa"></polygon><polygon points="287.61 106.76 289.34 107.75 289.34 152 287.61 151.01 287.61 106.76" style="fill:#e0e0e0"></polygon></g><g id="freepik--land--inject-11"><polygon points="324.51 124.2 293.85 141.9 293.85 133.05 301.51 115.35 306.29 119.77 304.57 127.19 315.16 104.55 324.51 115.35 324.51 124.2" style="fill:#f0f0f0"></polygon><path d="M306,106.8a5,5,0,0,0-2.27,3.93c0,1.44,1,2,2.27,1.31a5,5,0,0,0,2.27-3.93C308.27,106.66,307.25,106.08,306,106.8Z" style="fill:#f0f0f0"></path></g></g></g><g id="freepik--Plant--inject-11"><g id="freepik--Plants--inject-11"><path d="M291.46,359.53s-5-21.66,6-42.8c6.15-11.81,17.84-18.22,23.86-18.64,6.75-.46,13.26,5.64,6.82,13.38-6.13,7.36-17.25,10.19-24.87,29.54-5,12.76-4.95,22.31-4.95,22.31Z" style="fill:#6C5CE7"></path><path d="M291.46,359.53s-5-21.66,6-42.8c6.15-11.81,17.84-18.22,23.86-18.64,6.75-.46,13.26,5.64,6.82,13.38-6.13,7.36-17.25,10.19-24.87,29.54-5,12.76-4.95,22.31-4.95,22.31Z" style="fill:#fff;opacity:0.5"></path><path d="M295.85,354.1a.38.38,0,0,0,.4-.36c-1.42-23.86,14.17-43.51,25.69-49.85a.29.29,0,0,0,.12-.46.48.48,0,0,0-.58-.09c-11.69,6.43-27.51,26.33-26.07,50.45A.37.37,0,0,0,295.85,354.1Z" style="fill:#fff"></path><path d="M298.29,363.32c1.34-5.46,5.53-12.06,14-17.87s20-11,18.73-16.38-10.17-5.47-16.57-2.7-21.22,15.51-19.75,35Z" style="fill:#6C5CE7"></path><path d="M298.29,363.32c1.34-5.46,5.53-12.06,14-17.87s20-11,18.73-16.38-10.17-5.47-16.57-2.7-21.22,15.51-19.75,35Z" style="fill:#fff;opacity:0.65"></path><path d="M297,356.11a.42.42,0,0,0,.4-.3c1.93-11.55,19.59-25.69,27.45-27.74a.33.33,0,0,0,.28-.42.42.42,0,0,0-.52-.21c-8.24,2.15-26,16.29-28,28.3,0,.18.14.35.37.37Z" style="fill:#fff"></path></g></g><g id="freepik--Folder--inject-11"><g id="freepik--folder--inject-11"><path d="M37.58,428.63a3.11,3.11,0,0,1,1.7-2.5l168.94-106.2V164.51l20.95-25.92a31.18,31.18,0,0,0,6-16.82V34.19c0-5.23-3.6-7.23-8-4.47L39.28,146.46a3.11,3.11,0,0,0-1.7,2.5Z" style="fill:#6C5CE7"></path><path d="M223.57,57.54c0-5.23-3.71-7.41-8.28-4.88l-172,95.19a9.15,9.15,0,0,1-5.62.84,2.51,2.51,0,0,0,0,.27v279.4h0a3.23,3.23,0,0,1,1.66-2.23l168.94-106.2V164.51l15.35-19Z" style="opacity:0.30000000000000004"></path><path d="M39.12,430.86a9,9,0,0,0,8-.07l172-95.19c4.58-2.53,8.28-8.82,8.28-14V60.81c0-5.22-3.7-7.41-8.28-4.88l-172,95.19a9,9,0,0,1-8,.08A2.67,2.67,0,0,1,37.58,149V428.63A2.65,2.65,0,0,0,39.12,430.86Z" style="fill:#6C5CE7"></path><path d="M39.12,430.86a9,9,0,0,0,8-.07l172-95.19c4.58-2.53,8.28-8.82,8.28-14V60.81c0-5.22-3.7-7.41-8.28-4.88l-172,95.19a9,9,0,0,1-8,.08A2.67,2.67,0,0,1,37.58,149V428.63A2.65,2.65,0,0,0,39.12,430.86Z" style="fill:#fff;opacity:0.30000000000000004"></path><path d="M43,152.09a7.88,7.88,0,0,1-3.85-.89A2.67,2.67,0,0,1,37.58,149V428.63a2.65,2.65,0,0,0,1.54,2.23,7.88,7.88,0,0,0,3.85.9Z" style="fill:#fff;opacity:0.30000000000000004"></path><path d="M66,148.9a.47.47,0,0,0-.47.48V411.19a.48.48,0,0,0,1,0V149.38A.47.47,0,0,0,66,148.9Zm-15.37,8.88a.47.47,0,0,0-.47.47V420.07a.47.47,0,1,0,.94,0V158.25A.47.47,0,0,0,50.65,157.78Zm7.69-4.44a.48.48,0,0,0-.48.47V415.63a.48.48,0,0,0,.48.47.47.47,0,0,0,.47-.47V153.81A.47.47,0,0,0,58.34,153.34Z" style="fill:#6C5CE7"></path></g></g><g id="freepik--Sticker--inject-11"><g id="freepik--sticker--inject-11"><polygon points="112.58 383.39 70.3 407.8 70.3 425.55 112.58 401.14 120.26 387.83 112.58 383.39" style="fill:#6C5CE7"></polygon><path d="M86.51,402.57a.11.11,0,0,1,.16,0,.25.25,0,0,1,.07.21v8.47a.58.58,0,0,1-.07.28.37.37,0,0,1-.16.2l-.69.4a.12.12,0,0,1-.16,0,.25.25,0,0,1-.07-.21v-3.46L83,409.94v3.46a.59.59,0,0,1-.07.29.48.48,0,0,1-.16.2l-.69.4a.13.13,0,0,1-.16,0,.25.25,0,0,1-.07-.21V405.6a.62.62,0,0,1,.07-.29.42.42,0,0,1,.16-.2l.69-.4a.13.13,0,0,1,.16,0,.29.29,0,0,1,.07.22v3.36l2.57-1.48v-3.37a.65.65,0,0,1,.07-.29.47.47,0,0,1,.16-.2Z" style="fill:#fff"></path><path d="M92,406.91a.12.12,0,0,1,.16,0,.28.28,0,0,1,.06.2v.94a.71.71,0,0,1-.06.28.43.43,0,0,1-.16.2l-3.74,2.16a.12.12,0,0,1-.16,0,.25.25,0,0,1-.07-.21V402a.62.62,0,0,1,.07-.29.41.41,0,0,1,.16-.2L92,399.41a.12.12,0,0,1,.16,0,.29.29,0,0,1,.07.21v.93a.82.82,0,0,1-.07.29.45.45,0,0,1-.16.19l-2.75,1.59v2.08l2.56-1.47a.11.11,0,0,1,.16,0,.25.25,0,0,1,.07.21v.93a.65.65,0,0,1-.07.29.39.39,0,0,1-.16.19l-2.56,1.48v2.18Z" style="fill:#fff"></path><path d="M95.75,397.23c.71-.41,1.25-.47,1.62-.17a2.26,2.26,0,0,1,.55,1.79,5.57,5.57,0,0,1-.29,1.8,4.57,4.57,0,0,1-.83,1.48L98,404.69a.35.35,0,0,1,0,.13.53.53,0,0,1-.06.24.43.43,0,0,1-.13.16l-.73.42c-.11.06-.19.07-.25,0a.45.45,0,0,1-.11-.17l-1.12-2.41-1.13.66v3.05a.62.62,0,0,1-.07.29.42.42,0,0,1-.16.2l-.69.4a.12.12,0,0,1-.16,0,.24.24,0,0,1-.07-.2V399a.62.62,0,0,1,.07-.29.42.42,0,0,1,.16-.2Zm-1.28,4.87,1.24-.71a2.4,2.4,0,0,0,.77-.71,2.11,2.11,0,0,0,.29-1.17c0-.49-.1-.76-.29-.81a1,1,0,0,0-.77.19l-1.24.72Z" style="fill:#fff"></path><path d="M103,400.59a.12.12,0,0,1,.17,0,.29.29,0,0,1,.06.21v.93a.79.79,0,0,1-.06.29.4.4,0,0,1-.17.19l-3.73,2.16a.12.12,0,0,1-.17,0,.29.29,0,0,1-.06-.21v-8.47a.79.79,0,0,1,.06-.29.4.4,0,0,1,.17-.19l3.67-2.12a.12.12,0,0,1,.16,0,.29.29,0,0,1,.07.21v.93a.77.77,0,0,1-.07.29.56.56,0,0,1-.16.2l-2.75,1.58v2.09l2.56-1.48a.12.12,0,0,1,.16,0,.27.27,0,0,1,.07.21v.93a.62.62,0,0,1-.07.29.56.56,0,0,1-.16.2L100.18,400v2.17Z" style="fill:#fff"></path></g></g><g id="freepik--Character--inject-11"><g id="freepik--Chartacter--inject-11"><g id="freepik--Bottom--inject-11"><polygon points="386.13 402.8 380.2 400.54 382.16 396.53 385.8 399.95 386.13 402.8"></polygon><path d="M392.32,392.11s.22,3.87.27,5.09-5.17,5-6.46,5.6L385.8,400a21.9,21.9,0,0,0-3,4.6c-1,1.73-2.3,5-5.06,7.24-4.09,3.31-10.46,5-16.95,5.17s-10.2-1.41-12-2.82-2.42-3.07-1.95-4.71S392.32,392.11,392.32,392.11Z" style="fill:#263238"></path><path d="M375,378.83l-.07-2.24c-1.2,0-1.36,3.21-3.11,6.05a58.14,58.14,0,0,1-9.19,11.63c-6.61,6-12.5,9.7-15.44,12.39-4,3.59,2.93,9.37,13.52,8.82,5.25-.27,14.6-2.87,17.24-6s4.27-7.93,6.39-10.17,6.63-4.5,7.95-7.24c.73-1.5.36-5-.05-8-.38-2.74-.45-6.94-2-6.6l-.12,1.4c-.63,1.2-2.1,3.17-6.35,3.86C381.7,383.12,375.38,383.28,375,378.83Z" style="fill:#37474f"></path><path d="M380.41,382.87c-2-.18-4.19-.86-5-2.69l0-.06a5.12,5.12,0,0,1-1.39,4.31c-1.9,2.2-13.94,17.77-13.94,17.77s11.2-12.83,13.34-15.25c3.18-3.57,4.18-4,7.07-4.07Z" style="opacity:0.15"></path><path d="M377.75,387a.65.65,0,0,0,1.29-.14.65.65,0,0,0-.72-.57A.64.64,0,0,0,377.75,387Z" style="opacity:0.15"></path><path d="M374.61,390.44a.64.64,0,1,0,.57-.71A.64.64,0,0,0,374.61,390.44Z" style="opacity:0.15"></path><path d="M371.46,393.88a.65.65,0,0,0,.72.57.64.64,0,1,0-.14-1.28A.64.64,0,0,0,371.46,393.88Z" style="opacity:0.15"></path><path d="M368.32,397.32a.65.65,0,0,0,.72.57.64.64,0,0,0,.57-.71.65.65,0,0,0-1.29.14Z" style="opacity:0.15"></path><path d="M365.18,400.76a.65.65,0,0,0,.71.57.64.64,0,0,0,.58-.71.65.65,0,0,0-.71-.57A.64.64,0,0,0,365.18,400.76Z" style="opacity:0.15"></path><path d="M378.41,387.19a.26.26,0,0,0,.16-.44c-.13-.13-3.23-3.15-7.3-2.94h0a.27.27,0,0,0-.24.28.26.26,0,0,0,.28.24c3.84-.2,6.88,2.76,6.91,2.79A.25.25,0,0,0,378.41,387.19Z" style="fill:#263238"></path><path d="M375.27,390.62a.25.25,0,0,0,.16-.08.26.26,0,0,0,0-.37c-.13-.13-3.23-3.15-7.31-2.93h0a.26.26,0,0,0-.24.28.26.26,0,0,0,.27.24c3.84-.2,6.89,2.75,6.92,2.78A.26.26,0,0,0,375.27,390.62Z" style="fill:#263238"></path><path d="M372.13,394.07a.21.21,0,0,0,.16-.08.26.26,0,0,0,0-.37c-.13-.12-3.23-3.14-7.31-2.93h0a.27.27,0,0,0-.24.28.26.26,0,0,0,.27.24c3.84-.2,6.89,2.76,6.92,2.78A.23.23,0,0,0,372.13,394.07Z" style="fill:#263238"></path><path d="M369,397.51a.21.21,0,0,0,.16-.08.25.25,0,0,0,0-.36c-.13-.13-3.23-3.15-7.31-2.94h0a.26.26,0,0,0-.24.28.25.25,0,0,0,.27.24c3.84-.2,6.88,2.76,6.91,2.79A.27.27,0,0,0,369,397.51Z" style="fill:#263238"></path><path d="M365.84,401a.27.27,0,0,0,.17-.08.27.27,0,0,0,0-.37,10.68,10.68,0,0,0-7.31-2.93h0a.27.27,0,0,0-.25.28.26.26,0,0,0,.28.24c3.84-.2,6.88,2.75,6.91,2.78A.27.27,0,0,0,365.84,401Z" style="fill:#263238"></path><path d="M434.67,421.49c.9,5.06,2.09,8.35,4.26,11.12s6.05,3.09,8.94,2.48c4.05-.85,8-3.67,9.6-9.47.93-3.49.29-7.49-1.06-12.13Z" style="fill:#263238"></path><path d="M445.94,382.61c1.43-.06,2.67,6.74,4.31,13.49,1.75,7.24,4.49,11.08,5.81,15.95,1.83,6.74,1.72,9.89-.2,14.34s-11.88,9.87-16.79,4.41c-4-4.45-4.79-9.82-5.3-16.72A175.79,175.79,0,0,0,432,396.55c-.89-5.12-1.84-10.07-.67-10.79.18.75.39,1.7.58,2.43.14.56.62,3.33,1.42,3.26a10.68,10.68,0,0,0-.22-1.94,2.34,2.34,0,0,1,.2-1.71,2.69,2.69,0,0,1,1.49-.89,40.08,40.08,0,0,1,4.16-1.16,19.09,19.09,0,0,1,2.12-.34,22.64,22.64,0,0,1,3.75-.29,1.24,1.24,0,0,1,.85.6,2.1,2.1,0,0,1,.17.78,5.9,5.9,0,0,0,.35,1.39c.07.2.24.43.44.36s.2-.28.18-.45c-.09-.83-.27-1.42-.42-2.38-.07-.44-.22-1-.27-1.49S446,383.05,445.94,382.61Z" style="fill:#37474f"></path><path d="M451,414.37a.5.5,0,1,1-.6-.38A.5.5,0,0,1,451,414.37Z" style="opacity:0.15"></path><path d="M450,409.68a.5.5,0,1,1-.6-.38A.5.5,0,0,1,450,409.68Z" style="opacity:0.15"></path><path d="M449,405.25a.5.5,0,1,1-.6-.38A.5.5,0,0,1,449,405.25Z" style="opacity:0.15"></path><path d="M448,400.89a.5.5,0,1,1-.6-.38A.5.5,0,0,1,448,400.89Z" style="opacity:0.15"></path><path d="M436.86,402.93a.5.5,0,1,1-.6-.38A.5.5,0,0,1,436.86,402.93Z" style="opacity:0.15"></path><path d="M437.84,407.33a.49.49,0,0,1-.38.59.5.5,0,1,1,.38-.59Z" style="opacity:0.15"></path><path d="M438.82,411.75a.5.5,0,1,1-.6-.38A.5.5,0,0,1,438.82,411.75Z" style="opacity:0.15"></path><path d="M439.86,416.45a.5.5,0,1,1-1,.21.5.5,0,0,1,1-.21Z" style="opacity:0.15"></path><polygon points="444.32 418.19 436.55 385.51 438.38 385.25 444.32 418.19" style="opacity:0.15"></polygon><path d="M450.6,414.73h-.08c-3.37-.33-8.94.67-11,2a.25.25,0,0,1-.35-.08.26.26,0,0,1,.08-.35c2.19-1.42,7.81-2.44,11.34-2.08a.25.25,0,0,1,0,.5Z" style="fill:#263238"></path><path d="M449.56,410a.29.29,0,0,1-.13,0c-2.65-.89-8.6.49-11,2a.26.26,0,0,1-.35-.08.25.25,0,0,1,.08-.35c2.46-1.6,8.6-3,11.4-2.07a.25.25,0,0,1,0,.49Z" style="fill:#263238"></path><path d="M448.58,405.61a.23.23,0,0,1-.14,0c-2.65-.89-8.6.49-11,2a.26.26,0,0,1-.28-.43c2.47-1.59,8.61-3,11.4-2.07a.24.24,0,0,1,.16.32A.26.26,0,0,1,448.58,405.61Z" style="fill:#263238"></path><path d="M447.61,401.24h-.14c-2.65-.89-8.6.49-11,2a.25.25,0,1,1-.28-.42c2.47-1.6,8.61-3,11.4-2.08a.25.25,0,0,1,.16.33A.23.23,0,0,1,447.61,401.24Z" style="fill:#263238"></path><path d="M438.22,216c3.32,42.11,5.36,99.45,5.36,99.45.3,3.2,3.38,16.85,4.92,32.62,1.63,16.64,2.95,47.81,2.95,47.81s-11.64,6.26-21.07,3.12c0,0-10.11-52.5-14.94-72.11-4.58-18.56-11.74-53.74-11.74-53.74L398.83,308s.64,12,.29,20.4c-.42,9.77-6.65,56.71-6.65,56.71S379.81,392.53,370,385c0,0-1.7-64.74-2-76.49-.54-23.05,2.15-67.72,3-97.47Z" style="fill:#263238"></path><path d="M421.1,264.48q1.32,15.13,2.95,30.25.79,7.54,1.65,15.1l.86,7.55.44,3.77c.14,1.26.4,2.5.59,3.75,1.66,10,4.22,28.14,6,38.11s3.74,19.91,5.8,29.83q-2-15.06-4.32-30.06c-1.56-10-4-28.16-5.72-38.14-.2-1.25-.46-2.49-.61-3.74l-.46-3.77-.95-7.53q-.94-7.53-2-15.05Q423.39,279.49,421.1,264.48Z"></path><path d="M374.47,261.62c-1.06,9.41-1.62,18.88-2,28.34s-.78,19-.42,28.41.47,25.33.83,34.8.78,18.92,1.34,28.37q.23-14.21.09-28.4c-.06-9.46-.23-25.32-.43-34.78l-.17-7.09-.05-1.78,0-1.76,0-3.54.18-14.19.23-14.19C374.16,271.08,374.31,266.35,374.47,261.62Z"></path><path d="M403.7,273.16l-4.11-23.06s-11.43-1.67-17.29-6.93c0,0,3.78,7,14.56,9.68L401,273.23,398.83,308Z"></path></g><g id="freepik--Top--inject-11"><g id="freepik--Arm--inject-11"><path d="M354,144c.08-2,1-3.58,3.42-5.2a17.33,17.33,0,0,0,4.9-4.29c1.33-1.78,3.59-5.1,4.95-6.21s-.27-2.69-2.66-2.41-7.8,3-9.1,5.88S353.35,140.76,354,144Z" style="fill:#f28f8f"></path><path d="M385.1,134.49c-5.5.42-12.08.42-17.78,10.94-5.88,10.87-10.77,19.44-10.77,19.44a104,104,0,0,1-2.31-15.27c-.47-7.54-.27-10.84,2.12-15.17a125.75,125.75,0,0,0,9.17-14.79A73.68,73.68,0,0,0,353,121.37a2.55,2.55,0,0,0-1.59,1.1c-.21.42-.2.93-.4,1.36a2.82,2.82,0,0,1-1.49,1.26c-1.26.6-2.73,1.13-3.33,2.39-.33.7-.33,1.53-.61,2.25-.48,1.21-1.63,2-2.53,2.82a7.78,7.78,0,0,0-1.85,4c-1.92,7.76-2.44,15.65-2.44,27.68,0,8.35.5,19.78,3.36,26.1s8.61,13.46,17.05,5,23.16-31.91,23.16-31.91Z" style="fill:#ffa8a7"></path><path d="M357.29,133a14,14,0,0,0-3.92,2.3,4.83,4.83,0,0,1,.05,4.24c-1,2.56-2.92,3.55-2.44,6a4.18,4.18,0,0,1,2.24-3.84C356,140,357.62,134.48,357.29,133Z" style="fill:#f28f8f"></path><path d="M384.52,134.14c-5.23.56-10.59.85-15.75,7.92s-12.41,22-12.41,22l.19.84s4.25,5.4,5.11,16.06a22.18,22.18,0,0,1-5.76,17,8.86,8.86,0,0,1-2.49,1.06s2.1,1.54,5.15-.61,26.54-35.85,26.54-35.85Z" style="fill:#f0f0f0"></path><path d="M356.22,163.37l.33,1.5s2.77,9.7-.76,17.06-8.62,8.11-11.27,7.88c-2.91-.25-3.87-3.8-3.87-3.8l-.54-2.49a2.15,2.15,0,0,0-.65,2.49,67.48,67.48,0,0,0,4,9c1.61,2.91,7,7.11,11.64,4.55s7.53-8.85,7.53-17.21-1.92-13.69-3.22-15.47-3.61-5.58-3.61-5.58Z" style="fill:#e0e0e0"></path></g><g id="freepik--Chest--inject-11"><path d="M439.25,138.54s7.37,6.1,3.89,21.09a219.16,219.16,0,0,0-4.67,29.7c-.54,7.9.35,34.54.35,34.54-11.95,14.28-61.92,10.63-68.12-2.37,0,0-.71-50.54,3.81-68.44,2.56-10.14,6.16-16,10-18.92l17-4,15.43-.19Z" style="fill:#e6e6e6"></path></g><g id="freepik--Pen--inject-11"><path d="M432.37,53.08a5.36,5.36,0,1,0-9.13-5.63h0l-2.83,4.6a2.65,2.65,0,0,0,.19,2.69,8.38,8.38,0,0,0,6.46,4,2.68,2.68,0,0,0,2.48-1l2.83-4.6Z" style="fill:#455a64"></path><path d="M427.06,58.72a2.68,2.68,0,0,0,2.48-1l2.83-4.6h0a5.36,5.36,0,0,0,.23-5.21h0c.48,1.44-.88,3.62-2.45,6.17s-3.5,3.77-7.36,1.61c-2.81-1.57-2.47-3.29-2.07-4.11l-.31.51a2.65,2.65,0,0,0,.19,2.69A8.38,8.38,0,0,0,427.06,58.72Z" style="fill:#37474f"></path><path d="M432.08,75.09a16.66,16.66,0,0,0-28.37-17.47h0c-1.29,2.1-1.2,5,.59,8.35,3.57,6.61,12.55,12.14,20.06,12.35,3.75.11,6.42-1.13,7.72-3.23Z" style="fill:#6C5CE7"></path><path d="M431.49,66.74c-3.57-6.6-12.55-12.14-20.06-12.35-3.75-.11-6.43,1.14-7.72,3.23L341.36,158.83c-1.29,2.1-1.19,5,.59,8.35,3.57,6.61,12.55,12.14,20.06,12.36,3.75.1,6.43-1.14,7.72-3.23L432.08,75.09C433.37,73,433.27,70.05,431.49,66.74Z" style="fill:#6C5CE7"></path><path d="M431.49,66.74c-3.57-6.6-12.55-12.14-20.06-12.35-3.75-.11-6.43,1.14-7.72,3.23L341.36,158.83c-1.29,2.1-1.19,5,.59,8.35,3.57,6.61,12.55,12.14,20.06,12.36,3.75.1,6.43-1.14,7.72-3.23L432.08,75.09C433.37,73,433.27,70.05,431.49,66.74Z" style="fill:#fff;opacity:0.2"></path><path d="M358.49,185.88c-7.72-.22-16.95-5.91-20.62-12.7-1.83-3.4-1.93-6.43-.6-8.58l4.79-7.79c1.33-2.15,4.08-3.43,7.94-3.32,7.72.22,16.95,5.91,20.62,12.7,1.83,3.4,1.93,6.43.6,8.59l-4.79,7.78C365.1,184.71,362.35,186,358.49,185.88Z" style="fill:#6C5CE7"></path><path d="M358.49,185.88c-7.72-.22-16.95-5.91-20.62-12.7-1.83-3.4-1.93-6.43-.6-8.58l4.79-7.79c1.33-2.15,4.08-3.43,7.94-3.32,7.72.22,16.95,5.91,20.62,12.7,1.83,3.4,1.93,6.43.6,8.59l-4.79,7.78C365.1,184.71,362.35,186,358.49,185.88Z" style="fill:#fff;opacity:0.35000000000000003"></path><path d="M345.2,161.28c7.72.22,16.95,5.9,20.62,12.7,1.84,3.39,1.93,6.42.6,8.58s-4.07,3.43-7.93,3.32c-7.72-.22-16.95-5.91-20.62-12.7-1.83-3.4-1.93-6.43-.6-8.58S341.34,161.17,345.2,161.28Z" style="fill:#6C5CE7"></path><path d="M345.2,161.28c7.72.22,16.95,5.9,20.62,12.7,1.84,3.39,1.93,6.42.6,8.58s-4.07,3.43-7.93,3.32c-7.72-.22-16.95-5.91-20.62-12.7-1.83-3.4-1.93-6.43-.6-8.58S341.34,161.17,345.2,161.28Z" style="opacity:0.15"></path><path d="M281.88,258.87c1.15-1.86,3.53-3,6.88-2.87,6.68.19,14.68,5.11,17.86,11,1.59,2.94,1.67,5.57.52,7.43h0l-3.83,3.76h0a7.44,7.44,0,0,1-5.68,1.84c-6.16-.17-13.52-4.71-16.45-10.13a7.46,7.46,0,0,1-.91-5.9h0Z" style="fill:#6C5CE7"></path><g style="opacity:0.15"><path d="M281.88,258.87c1.15-1.86,3.53-3,6.88-2.87,6.68.19,14.68,5.11,17.86,11,1.59,2.94,1.67,5.57.52,7.43h0l-3.83,3.76h0a7.44,7.44,0,0,1-5.68,1.84c-6.16-.17-13.52-4.71-16.45-10.13a7.46,7.46,0,0,1-.91-5.9h0Z"></path></g><path d="M288.76,256c6.68.19,14.68,5.11,17.86,11,1.59,2.94,1.67,5.57.52,7.43l56.23-91.28c1.15-1.87,1.07-4.5-.52-7.44-3.18-5.89-11.17-10.81-17.86-11-3.34-.1-5.73,1-6.88,2.87l-56.23,91.29h0C283,257,285.41,255.9,288.76,256Z" style="fill:#6C5CE7"></path><path d="M302.82,278.52c1.07-1.66,1-4-.44-6.7-2.85-5.27-10.05-9.66-16.07-9.81-3-.07-5.11.89-6.13,2.56h0l0,.05h0v0c-3.58,5.86-10.62,23.56-9.78,32.38l.16.1a3.13,3.13,0,0,0,.41,1.37,7.72,7.72,0,0,0,6,3.63,3.23,3.23,0,0,0,1.35-.24h0C286.54,298.66,299.26,284.3,302.82,278.52Z" style="fill:#6C5CE7"></path><path d="M362.85,175.71a17.38,17.38,0,0,0-2.14-3.05L304.48,264a17,17,0,0,1,2.14,3.05c.1.19.18.38.27.57l56.24-91.29C363,176.09,363,175.9,362.85,175.71Zm9.12-5.84a7.83,7.83,0,0,0-.22-.93l55.46-90c7.28-11.81,7.25-16.78,4.61-21.67,1.57,4.83-5.1,15.58-6,17L369.92,165c.25.39.48.78.7,1.17l-4.8,7.79a12.91,12.91,0,0,1,1.35,3.67ZM274.24,301.44l2.92-1.31s2.12.22,8.44-5.53,10.13-12,16.78-22.78a16.19,16.19,0,0,0-2.61-3.47c-.07.14-7.48,14.5-16.77,24.65a53.81,53.81,0,0,1-9.25,8.18C273.91,301.27,274.07,301.36,274.24,301.44Z" style="fill:#fff;opacity:0.2"></path><path d="M272.74,297.41l-2.33,3.78c-1,1.65-2.65,6.31-1.34,7.12s4.74-2.75,5.76-4.4h0l2.33-3.77s-.05-1-1.79-2S272.74,297.41,272.74,297.41Z" style="fill:#455a64"></path><path d="M270.76,308a1.71,1.71,0,0,0-2.16-1.33c-.08.78.07,1.4.47,1.65S270.08,308.41,270.76,308Z" style="fill:#263238"></path></g><g id="freepik--Hand--inject-11"><path d="M365.5,119.64c1.43,0,4.07,1.54,6.14,2.89s4,1.45,3.32,3a3,3,0,0,1-2.75,1.26,11.92,11.92,0,0,1-3.37-.63c2.45,2.11,3,2.95,2.27,3.69-1,1.07-2.82.94-4.3.21.83.85,1.77,1.29,1.34,2.1s-1.94,1.06-3.7.74a10.22,10.22,0,0,1-3.21-1.13c-1.87.5-3.95,1.22-3.95,1.22A45.06,45.06,0,0,1,365.5,119.64Z" style="fill:#ffa8a7"></path><path d="M366.81,130c-1-.57-2-1.29-3-1.88a4.53,4.53,0,0,0-3.29-.36c-1.15.14-2.3.36-3.45.58s-2.3.4-3.47.55c1.12-.32,2.26-.6,3.41-.88s2.29-.5,3.46-.67a10.57,10.57,0,0,1,1.79-.1,3.3,3.3,0,0,1,1.72.6C365,128.54,365.88,129.3,366.81,130Z" style="fill:#f28f8f"></path><path d="M368.84,126.12c-.89-.57-1.78-1.14-2.69-1.67-.46-.25-.92-.54-1.37-.73a4.05,4.05,0,0,0-1.49-.14c-1,0-2.09.19-3.13.32s-2.1.27-3.16.36c1-.27,2.06-.49,3.11-.69a25.43,25.43,0,0,1,3.17-.41,4.25,4.25,0,0,1,1.64.2,10,10,0,0,1,1.4.81A22.86,22.86,0,0,1,368.84,126.12Z" style="fill:#f28f8f"></path></g><g id="freepik--Head--inject-11"><path d="M420.94,84.9s3.33,0,5.77,4.08c1.23,2,2.26,5.81,0,17a44,44,0,0,1-4.49,12.41,5.39,5.39,0,0,1-3,2.71l-.32-8.43-.06-5.88s-4.09-4.9-4.77-9.09c-.87-5.38.13-7.67.13-7.67Z" style="fill:#37474f"></path><path d="M422.11,85.11c-1.13-4.68-7.49-9.93-19.1-9.81-9.51.11-14.85,3.72-17.79,9.46s-.31,12.76-.31,12.76l29.66-3.86Z" style="fill:#37474f"></path><path d="M426.74,114.59c-3.19,1.91-6.43-.92-6.43-.92l.46,17.39s-.13,3.37-5.28,6.65c-7.3,4.65-10.5,5.86-13.46,10.52-2.92-7.32-5.92-11.34-1.44-17.31l-.24-4a27.66,27.66,0,0,1-5.24.17c-3.9-.36-6.52-3.27-7.94-7.38-2.09-6.08-3.4-15.93-1.74-26.61a9,9,0,0,1,2.86-5.38c7.24-6.41,16.07-2.61,22.69-.51a12.2,12.2,0,0,0,8.12-.55c-2.09,2.63-3,5.1-2.35,17.06a7.17,7.17,0,0,0,1.8,2.06c1.49,1.14,2.44-2.11,3.55-3.42a4.86,4.86,0,0,1,7.67,1.25A8,8,0,0,1,426.74,114.59Z" style="fill:#ffa8a7"></path><path d="M404.54,96.85l4.38,1.58a2.43,2.43,0,0,0-1.45-3.05A2.27,2.27,0,0,0,404.54,96.85Z" style="fill:#37474f"></path><path d="M388.37,98.11l4.42-1.59a2.26,2.26,0,0,0-2.93-1.46A2.47,2.47,0,0,0,388.37,98.11Z" style="fill:#37474f"></path><path d="M407.28,101.34a1.9,1.9,0,1,1-1.95-1.84A1.89,1.89,0,0,1,407.28,101.34Z" style="fill:#263238"></path><path d="M393.16,101.54a1.9,1.9,0,1,1-2-1.84A1.73,1.73,0,0,1,393.16,101.54Z" style="fill:#263238"></path><path d="M400.08,97.58l-.79,12.14-6.52-1.94A28.32,28.32,0,0,1,400.08,97.58Z" style="fill:#f28f8f"></path><path d="M416.8,102.75c-.29,8.28-3.13,8.89-6.06,9.4-3.89.69-5.83-1.39-12.79-1.3-4.22.05-5.53,1.32-7.92,2.34-1.76.75-3.21.55-3.91-1a27.56,27.56,0,0,1-1.44-8.92,66.22,66.22,0,0,0,.51,13.55c.62,3.88,2.08,7.19,4.25,9,3,2.48,9.23,3.43,17,1.62s10.66-5.08,11.57-7.84c2.92-9,1.68-13.16,2.68-14.86S416.8,102.75,416.8,102.75Z" style="fill:#37474f"></path><path d="M398.93,113.32c4-.13,5.28.57,5.5,3.29.32,3.89.15,5.2-1.34,5.42-1.75.27-3,.39-3.11-.72a4.44,4.44,0,0,1,.22-2.49c.61-.76.39-.86-1.35-.8s-1.72.37-1.19.9c.38.39.36,1.72.37,2.49s-.18,1.17-2.69,1c-2.19-.18-1.84-1.94-1.84-5.29C393.5,114.83,394.43,113.47,398.93,113.32Z" style="fill:#ffa8a7"></path><path d="M402.7,113.88l-6.46,1a3.2,3.2,0,0,0,3.64,2.84A3.42,3.42,0,0,0,402.7,113.88Z" style="fill:#b16668"></path><path d="M401.86,114.87a3,3,0,0,1,.79.06,3.38,3.38,0,0,1-2.77,2.76,3.07,3.07,0,0,1-1.05,0A3,3,0,0,1,401.86,114.87Z" style="fill:#f28f8f"></path></g><g id="freepik--Tie--inject-11"><path d="M398.88,147.63s-2.88-5.42-2.89-7.55l3.44-3.59,1.12,8.87Z" style="fill:#6C5CE7"></path><path d="M398.88,147.63s-2.88-5.42-2.89-7.55l3.44-3.59,1.12,8.87Z" style="opacity:0.2"></path><polygon points="403.6 145.7 409.48 141.66 414.42 144.95 405.38 149.62 403.6 145.7" style="fill:#6C5CE7"></polygon><polygon points="403.6 145.7 409.48 141.66 414.42 144.95 405.38 149.62 403.6 145.7" style="opacity:0.2"></polygon><path d="M407.75,200.32c-.56-19-4.8-43.13-4.47-47.75l-3.23-.3c-2.21,5.55-7.14,36.35-6.91,49.47-.14,4.58,4.33,13,7.41,13.14S407.83,203.1,407.75,200.32Z" style="fill:#6C5CE7"></path><path d="M407.75,200.32c-.56-19-4.8-43.13-4.47-47.75l-3.23-.3c-2.21,5.55-7.14,36.35-6.91,49.47-.14,4.58,4.33,13,7.41,13.14S407.83,203.1,407.75,200.32Z" style="fill:#fff;opacity:0.1"></path><path d="M399.8,153c.1-.29.16-.48.25-.7h0l3.23.3h0a13.2,13.2,0,0,0,0,1.42A5.68,5.68,0,0,1,399.8,153Z" style="opacity:0.5"></path><path d="M403.68,145.25a13.76,13.76,0,0,0-3.05-.11,7.23,7.23,0,0,0-1.75,2.49,11.08,11.08,0,0,0,1.17,4.64,3.88,3.88,0,0,0,3.23.3,6.75,6.75,0,0,0,2.31-3.12A6.13,6.13,0,0,0,403.68,145.25Z" style="fill:#6C5CE7"></path><path d="M403.68,145.25a13.76,13.76,0,0,0-3.05-.11,7.23,7.23,0,0,0-1.75,2.49,11.08,11.08,0,0,0,1.17,4.64,3.88,3.88,0,0,0,3.23.3,6.75,6.75,0,0,0,2.31-3.12A6.13,6.13,0,0,0,403.68,145.25Z" style="fill:#fff;opacity:0.1"></path><path d="M403.62,145.24c.1,0,.24.24.34.26,2.24-1.24,2.59-1.65,3.19-1.49,1.13.31,3.85,5,4.53,6.5s.56,1.5,2.62.1a37.2,37.2,0,0,0,9.3-9.18,27.56,27.56,0,0,0,3.65-7.51s-2.4-3.24-3.11-4.48c-1.37-2.4-2.13-3.36-3.5-3.14v1.57c-.22,2.11-2.39,4.14-5.3,6.71s-7.64,5-8.75,6.14A22.1,22.1,0,0,0,403.62,145.24Z" style="fill:#f5f5f5"></path><path d="M393,147.15c.34.85,3-5.89,4.33-5.77.64.05,2.12,1.85,3.34,3.76l.92,0a20.44,20.44,0,0,1-1.45-5.1c-.3-2.28.53-9.09.53-9.09l-.2-2.63-1.18.05a10.33,10.33,0,0,0-1.15,1.57c-1.28,2.16-4.63,7.16-5,9.72A22.37,22.37,0,0,0,393,147.15Z" style="fill:#f5f5f5"></path></g><g id="freepik--arm--inject-11"><path d="M413.12,184.74a25.26,25.26,0,0,1-3.9-5.53c-1.35-2.55-1.84-4.27-2.84-6.36l-1-2a1.21,1.21,0,0,0-.31-.46,1,1,0,0,0-1.17.05,4.09,4.09,0,0,0-1.83,3.5,16.69,16.69,0,0,0,.65,4.07c.19.88,1.05,4.13,1.05,4.13Z" style="fill:#f28f8f"></path><path d="M455,150.24c-3.29-7.76-7.42-8.93-18.38-12.08-5.94,10.15-1.51,29.87-1.51,29.87l5,23.32s-17.11-.53-20.13-1.92-11.56-8.36-14.38-10.41c-3.85-2.78-5.47-2.11-7.16-1.62-5.53,1.63-6.71,2.28-7.8,3.21a2.57,2.57,0,0,0-.79,2.35c-1.48.39-3.73.66-3.68,3.16a7.09,7.09,0,0,0,.19,2,1.63,1.63,0,0,0-.9.69c-1.05,1.62,1.78,6.33,3.31,7.36,1.08.73,2.45.65,4.21.16,1.49-.42.57-1.87.57-1.87l2.14-.17c5.05,2.63,6.18,8.64,12.45,9.22a61.65,61.65,0,0,1,7.61.84c13.69,2.59,27.14,10.55,38.93,9.94,11.51-.6,10.35-6.62,9.56-13.61C463.59,194.44,458.77,159.1,455,150.24Z" style="fill:#ffa8a7"></path><path d="M439.66,189l.5,2.32c5.36.61,11.47,3.57,13.1,6.23C451.68,193.22,449.11,190.2,439.66,189Z" style="fill:#f28f8f"></path><path d="M436.38,137.39c4,1.19,11.07,2.38,14.15,5.45s5.14,4.87,7.56,15,5.38,34.24,6.67,38.52,2.34,7.14,0,9.75c-2.89-7.73-11.07-14.33-24.59-14.79-2.23,0-1.71-2.77-2.5-5.34s-3.73-17.73-5-22.77S429.55,142.74,436.38,137.39Z" style="fill:#f0f0f0"></path><path d="M438.54,190.2l-.32,1a31.59,31.59,0,0,1,12.46,6.88c5.29,5.06,6.49,9.21,6.76,11.86s0,4.23-2,4.31l-1.83.07s.38,1,3.84.72c3-.24,5.9-1.08,7.32-4.17a9.37,9.37,0,0,0,.37-8c-1-2.78-3.65-7.69-11.87-11.09C446.52,189,438.54,190.2,438.54,190.2Z" style="fill:#e0e0e0"></path><path d="M389.9,183l6.52-2.29L389.91,182A2.53,2.53,0,0,0,389.9,183Z" style="fill:#f28f8f"></path><path d="M386.41,188.11,394,186l-7.72,1.17A4.19,4.19,0,0,0,386.41,188.11Z" style="fill:#f28f8f"></path><path d="M387.9,191.37a2.48,2.48,0,0,0,1.16.76,5,5,0,0,0,1.38.26l-.11-.06c.26.38.54.75.81,1.11l.14-.23a1.58,1.58,0,0,0-1.19.47,2,2,0,0,0-.53,1.1,2.49,2.49,0,0,1,.67-.95,1.54,1.54,0,0,1,1-.33l.3,0-.17-.25c-.27-.38-.54-.75-.82-1.11l0-.06h-.07a6.75,6.75,0,0,1-1.33-.18A2.94,2.94,0,0,1,387.9,191.37Z" style="fill:#f28f8f"></path><path d="M390.08,192.08a24.79,24.79,0,0,0,2.83-.19s.13.54,1.16,1.35a16.17,16.17,0,0,0,1.67,1l-2.14.17a3.45,3.45,0,0,0-2.62-1Z" style="fill:#f28f8f"></path></g></g></g></g></svg>